<svg xmlns="http://www.w3.org/2000/svg" xmlns:xlink="http://www.w3.org/1999/xlink" width="820" zoomAndPan="magnify" viewBox="0 0 615 213.75" height="285" preserveAspectRatio="xMidYMid meet" version="1.0"><defs><g/><clipPath id="119dab328d"><path d="M 13.46875 21.351562 L 183.519531 21.351562 L 183.519531 191.402344 L 13.46875 191.402344 Z M 13.46875 21.351562 " clip-rule="nonzero"/></clipPath><clipPath id="32b9d1e015"><path d="M 19.402344 79.988281 L 177.546875 79.988281 L 177.546875 141.886719 L 19.402344 141.886719 Z M 19.402344 79.988281 " clip-rule="nonzero"/></clipPath><clipPath id="2f95bf6d58"><path d="M 36.140625 80 L 87.382812 80 L 87.382812 95.71875 L 36.140625 95.71875 Z M 36.140625 80 " clip-rule="nonzero"/></clipPath><clipPath id="6d94b59f77"><path d="M 13.46875 71.796875 L 119.964844 71.796875 L 119.964844 141.75 L 13.46875 141.75 Z M 13.46875 71.796875 " clip-rule="nonzero"/></clipPath><clipPath id="8696dffaa2"><path d="M 29.453125 85.621094 L 48.960938 85.621094 L 48.960938 90.226562 L 29.453125 90.226562 Z M 29.453125 85.621094 " clip-rule="nonzero"/></clipPath><clipPath id="a10d70d2e5"><path d="M 46.648438 85.621094 C 47.917969 85.621094 48.949219 86.652344 48.949219 87.925781 C 48.949219 89.195312 47.917969 90.226562 46.648438 90.226562 L 31.753906 90.226562 C 30.484375 90.226562 29.453125 89.195312 29.453125 87.925781 C 29.453125 86.652344 30.484375 85.621094 31.753906 85.621094 Z M 46.648438 85.621094 " clip-rule="nonzero"/></clipPath><clipPath id="d4308fed53"><path d="M 26.777344 97.546875 L 46.285156 97.546875 L 46.285156 102.148438 L 26.777344 102.148438 Z M 26.777344 97.546875 " clip-rule="nonzero"/></clipPath><clipPath id="3296dc7d7f"><path d="M 43.96875 97.546875 C 45.242188 97.546875 46.269531 98.578125 46.269531 99.847656 C 46.269531 101.121094 45.242188 102.148438 43.96875 102.148438 L 29.078125 102.148438 C 27.808594 102.148438 26.777344 101.121094 26.777344 99.847656 C 26.777344 98.578125 27.808594 97.546875 29.078125 97.546875 Z M 43.96875 97.546875 " clip-rule="nonzero"/></clipPath><clipPath id="2a37f94489"><path d="M 24.25 109.632812 L 43.757812 109.632812 L 43.757812 114.234375 L 24.25 114.234375 Z M 24.25 109.632812 " clip-rule="nonzero"/></clipPath><clipPath id="ecdf6a7a21"><path d="M 41.445312 109.632812 C 42.714844 109.632812 43.746094 110.664062 43.746094 111.933594 C 43.746094 113.203125 42.714844 114.234375 41.445312 114.234375 L 26.554688 114.234375 C 25.28125 114.234375 24.25 113.203125 24.25 111.933594 C 24.25 110.664062 25.28125 109.632812 26.554688 109.632812 Z M 41.445312 109.632812 " clip-rule="nonzero"/></clipPath><clipPath id="b8ba5e05f0"><path d="M 21.246094 121.457031 L 40.753906 121.457031 L 40.753906 126.058594 L 21.246094 126.058594 Z M 21.246094 121.457031 " clip-rule="nonzero"/></clipPath><clipPath id="a4bb25a258"><path d="M 38.441406 121.457031 C 39.710938 121.457031 40.742188 122.488281 40.742188 123.757812 C 40.742188 125.03125 39.710938 126.058594 38.441406 126.058594 L 23.546875 126.058594 C 22.277344 126.058594 21.246094 125.03125 21.246094 123.757812 C 21.246094 122.488281 22.277344 121.457031 23.546875 121.457031 Z M 38.441406 121.457031 " clip-rule="nonzero"/></clipPath><clipPath id="0a0e630862"><path d="M 18.363281 131.839844 L 119.976562 131.839844 L 119.976562 136.320312 L 18.363281 136.320312 Z M 18.363281 131.839844 " clip-rule="nonzero"/></clipPath><clipPath id="77a8d034f2"><path d="M 117.722656 131.839844 C 118.960938 131.839844 119.964844 132.84375 119.964844 134.082031 C 119.964844 135.316406 118.960938 136.320312 117.722656 136.320312 L 20.601562 136.320312 C 19.367188 136.320312 18.363281 135.316406 18.363281 134.082031 C 18.363281 132.84375 19.367188 131.839844 20.601562 131.839844 Z M 117.722656 131.839844 " clip-rule="nonzero"/></clipPath><clipPath id="d1a8c965af"><path d="M 34 75.867188 L 127.539062 75.867188 L 127.539062 79.988281 L 34 79.988281 Z M 34 75.867188 " clip-rule="nonzero"/></clipPath><clipPath id="615a04741b"><path d="M 125.464844 75.867188 C 126.601562 75.867188 127.523438 76.789062 127.523438 77.925781 C 127.523438 79.066406 126.601562 79.988281 125.464844 79.988281 L 36.0625 79.988281 C 34.921875 79.988281 34 79.066406 34 77.925781 C 34 76.789062 34.921875 75.867188 36.0625 75.867188 Z M 125.464844 75.867188 " clip-rule="nonzero"/></clipPath></defs><g clip-path="url(#119dab328d)"><path fill="#ffffff" d="M -3.535156 4.34375 L 200.523438 4.34375 L 200.523438 208.40625 L -3.535156 208.40625 Z M -3.535156 4.34375 " fill-opacity="1" fill-rule="nonzero"/><path fill="#ffffff" d="M -3.535156 4.34375 L 200.523438 4.34375 L 200.523438 208.40625 L -3.535156 208.40625 Z M -3.535156 4.34375 " fill-opacity="1" fill-rule="nonzero"/></g><g clip-path="url(#32b9d1e015)"><path fill="#1e3d73" d="M 147.730469 110.0625 C 147.792969 109.617188 148.238281 109.234375 148.683594 109.234375 L 152.601562 109.234375 C 153.050781 109.234375 153.367188 109.617188 153.304688 110.0625 C 153.242188 110.507812 152.792969 110.890625 152.347656 110.890625 L 148.429688 110.890625 C 147.984375 110.890625 147.664062 110.507812 147.730469 110.0625 M 152.285156 129.621094 C 150.214844 129.621094 148.269531 131.3125 147.953125 133.382812 C 147.632812 135.453125 149.066406 137.140625 151.167969 137.140625 C 153.242188 137.140625 155.183594 135.453125 155.503906 133.382812 C 155.789062 131.3125 154.355469 129.621094 152.285156 129.621094 Z M 78.886719 129.621094 C 76.816406 129.621094 74.871094 131.3125 74.550781 133.382812 C 74.234375 135.453125 75.667969 137.140625 77.769531 137.140625 C 79.84375 137.140625 81.785156 135.453125 82.105469 133.382812 C 82.421875 131.3125 80.988281 129.621094 78.886719 129.621094 Z M 145.945312 100.1875 L 146.453125 96.777344 L 146.675781 95.246094 C 146.804688 94.324219 147.699219 93.558594 148.621094 93.558594 L 162.925781 93.558594 C 163.464844 93.558594 163.882812 93.78125 164.167969 94.199219 L 171.460938 105.855469 C 171.652344 106.175781 171.652344 106.558594 171.398438 106.9375 C 171.175781 107.289062 170.792969 107.511719 170.410156 107.511719 L 146.519531 107.511719 C 145.59375 107.511719 144.957031 106.75 145.085938 105.824219 Z M 26.703125 131.691406 L 70.316406 131.691406 C 70.125 132.234375 69.964844 132.808594 69.902344 133.382812 C 69.203125 138.03125 72.417969 141.824219 77.070312 141.824219 C 81.722656 141.824219 86.085938 138.03125 86.785156 133.382812 C 87.488281 128.730469 84.269531 124.941406 79.617188 124.941406 C 77.769531 124.941406 75.984375 125.511719 74.457031 126.53125 C 76.175781 125.226562 78.28125 124.429688 80.445312 124.429688 C 84.777344 124.429688 87.871094 127.582031 87.871094 131.691406 L 143.714844 131.691406 C 143.523438 132.234375 143.363281 132.808594 143.300781 133.382812 C 142.601562 138.03125 145.816406 141.824219 150.46875 141.824219 C 155.121094 141.824219 159.484375 138.03125 160.1875 133.382812 C 160.886719 128.730469 157.667969 124.941406 153.015625 124.941406 C 150.945312 124.941406 148.972656 125.671875 147.316406 126.882812 C 149.097656 125.355469 151.394531 124.398438 153.78125 124.398438 C 158.113281 124.398438 161.234375 127.550781 161.203125 131.660156 L 172.769531 131.660156 C 173.597656 131.660156 174.363281 130.992188 174.488281 130.164062 L 174.964844 127.011719 L 175.1875 127.011719 C 175.570312 127.011719 175.953125 126.691406 176.019531 126.308594 C 176.082031 125.925781 175.796875 125.605469 175.414062 125.605469 L 171.78125 125.605469 L 172.003906 124.207031 L 174.710938 124.207031 C 175.09375 124.207031 175.476562 123.886719 175.539062 123.503906 L 177.355469 111.398438 C 177.417969 111.046875 177.355469 110.761719 177.195312 110.476562 L 164.359375 89.929688 C 164.136719 89.546875 163.753906 89.355469 163.273438 89.355469 L 147.664062 89.355469 L 148.398438 84.480469 C 148.589844 83.207031 148.046875 82.027344 146.964844 81.359375 L 144.734375 79.988281 L 142.089844 97.734375 L 138.90625 118.855469 L 135.71875 118.855469 C 137.664062 105.886719 139.636719 92.953125 141.582031 79.988281 L 139.667969 79.988281 L 134.636719 113.308594 L 133.457031 113.308594 L 137.882812 83.621094 C 138.011719 82.664062 137.789062 81.804688 137.152344 81.105469 C 136.515625 80.371094 135.71875 80.019531 134.761719 80.019531 L 95.195312 80.019531 C 93.828125 80.019531 92.710938 81.007812 92.519531 82.34375 L 92.488281 82.441406 C 92.363281 83.238281 92.582031 84.003906 93.125 84.605469 C 93.667969 85.246094 94.367188 85.5625 95.195312 85.5625 L 114.566406 85.5625 C 115.136719 85.5625 115.617188 85.785156 115.96875 86.203125 C 116.351562 86.613281 116.476562 87.125 116.382812 87.699219 L 116.285156 88.207031 C 116.160156 89.132812 115.363281 89.800781 114.4375 89.800781 L 81.625 89.800781 C 80.285156 89.800781 79.140625 90.753906 78.949219 92.09375 L 78.917969 92.191406 C 78.789062 93.019531 79.011719 93.75 79.523438 94.390625 C 80.066406 95.023438 80.765625 95.34375 81.59375 95.34375 L 126.574219 95.34375 L 123.039062 118.980469 C 101.21875 118.980469 63.117188 118.980469 40.371094 118.980469 C 37.3125 118.980469 37.34375 123.601562 40.371094 123.601562 L 61.140625 123.601562 C 63.816406 123.601562 63.785156 127.742188 61.109375 127.742188 L 27.753906 127.742188 C 25.238281 127.742188 24.535156 131.691406 26.703125 131.691406 Z M 21.511719 89.800781 L 47.664062 89.800781 C 48.238281 89.800781 48.71875 90.121094 49.066406 90.753906 C 49.417969 91.363281 49.578125 92.125 49.511719 92.921875 L 49.511719 93.019531 C 49.386719 94.355469 48.589844 95.34375 47.664062 95.34375 L 21.480469 95.34375 C 20.90625 95.34375 20.425781 95.023438 20.078125 94.390625 C 19.726562 93.78125 19.566406 93.019531 19.632812 92.222656 L 19.632812 92.125 C 19.789062 90.753906 20.585938 89.800781 21.511719 89.800781 Z M 21.511719 89.800781 " fill-opacity="1" fill-rule="evenodd"/></g><path fill="#1e3d73" d="M 151.933594 131.914062 C 151.105469 131.914062 150.371094 132.585938 150.246094 133.382812 C 150.117188 134.210938 150.691406 134.847656 151.488281 134.847656 C 152.316406 134.847656 153.050781 134.175781 153.175781 133.382812 C 153.304688 132.585938 152.761719 131.914062 151.933594 131.914062 " fill-opacity="1" fill-rule="evenodd"/><path fill="#1e3d73" d="M 78.535156 131.914062 C 77.707031 131.914062 76.972656 132.585938 76.847656 133.382812 C 76.71875 134.210938 77.292969 134.847656 78.089844 134.847656 C 78.917969 134.847656 79.652344 134.175781 79.777344 133.382812 C 79.9375 132.585938 79.363281 131.914062 78.535156 131.914062 " fill-opacity="1" fill-rule="evenodd"/><g clip-path="url(#2f95bf6d58)"><path fill="#1e3d73" d="M 69.328125 89.800781 L 56.96875 89.800781 C 55.597656 89.800781 54.484375 90.789062 54.292969 92.125 L 54.261719 92.222656 C 54.132812 93.019531 54.355469 93.78125 54.898438 94.390625 C 55.4375 95.023438 56.140625 95.34375 56.96875 95.34375 L 69.328125 95.34375 C 70.667969 95.34375 71.8125 94.390625 72.003906 93.050781 L 72.035156 92.953125 C 72.164062 92.125 71.941406 91.394531 71.429688 90.753906 C 70.921875 90.121094 70.125 89.800781 69.328125 89.800781 M 87.074219 83.238281 L 87.074219 83.140625 C 87.167969 82.34375 87.007812 81.582031 86.59375 80.976562 C 86.183594 80.339844 85.640625 80.019531 84.96875 80.019531 L 38.363281 80.019531 C 37.3125 80.019531 36.421875 81.007812 36.261719 82.34375 L 36.261719 82.441406 C 36.164062 83.238281 36.324219 84.003906 36.738281 84.605469 C 37.152344 85.246094 37.695312 85.5625 38.363281 85.5625 L 84.96875 85.5625 C 86.023438 85.53125 86.914062 84.574219 87.074219 83.238281 Z M 87.074219 83.238281 " fill-opacity="1" fill-rule="evenodd"/></g><g clip-path="url(#6d94b59f77)"><path fill="#ffffff" d="M 13.46875 71.796875 L 120.035156 71.796875 L 120.035156 141.75 L 13.46875 141.75 Z M 13.46875 71.796875 " fill-opacity="1" fill-rule="nonzero"/></g><g clip-path="url(#8696dffaa2)"><g clip-path="url(#a10d70d2e5)"><path fill="#1e3d73" d="M 29.453125 85.621094 L 48.941406 85.621094 L 48.941406 90.226562 L 29.453125 90.226562 Z M 29.453125 85.621094 " fill-opacity="1" fill-rule="nonzero"/></g></g><g clip-path="url(#d4308fed53)"><g clip-path="url(#3296dc7d7f)"><path fill="#1e3d73" d="M 26.777344 97.546875 L 46.265625 97.546875 L 46.265625 102.148438 L 26.777344 102.148438 Z M 26.777344 97.546875 " fill-opacity="1" fill-rule="nonzero"/></g></g><g clip-path="url(#2a37f94489)"><g clip-path="url(#ecdf6a7a21)"><path fill="#1e3d73" d="M 24.25 109.632812 L 43.742188 109.632812 L 43.742188 114.234375 L 24.25 114.234375 Z M 24.25 109.632812 " fill-opacity="1" fill-rule="nonzero"/></g></g><g clip-path="url(#b8ba5e05f0)"><g clip-path="url(#a4bb25a258)"><path fill="#1e3d73" d="M 21.246094 121.457031 L 40.734375 121.457031 L 40.734375 126.058594 L 21.246094 126.058594 Z M 21.246094 121.457031 " fill-opacity="1" fill-rule="nonzero"/></g></g><path fill="#ffffff" d="M 111.304688 132.214844 L 123.367188 75.691406 L 135.164062 75.691406 L 123.097656 132.214844 Z M 111.304688 132.214844 " fill-opacity="1" fill-rule="nonzero"/><g clip-path="url(#0a0e630862)"><g clip-path="url(#77a8d034f2)"><path fill="#1e3d73" d="M 18.363281 131.839844 L 119.960938 131.839844 L 119.960938 136.320312 L 18.363281 136.320312 Z M 18.363281 131.839844 " fill-opacity="1" fill-rule="nonzero"/></g></g><path fill="#ffffff" d="M 107.089844 124.394531 L 119.148438 67.875 L 130.945312 67.875 L 118.878906 124.394531 Z M 107.089844 124.394531 " fill-opacity="1" fill-rule="nonzero"/><g clip-path="url(#d1a8c965af)"><g clip-path="url(#615a04741b)"><path fill="#1e3d73" d="M 34 75.867188 L 127.523438 75.867188 L 127.523438 79.988281 L 34 79.988281 Z M 34 75.867188 " fill-opacity="1" fill-rule="nonzero"/></g></g><path fill="#1e3d73" d="M 46.132812 126.449219 L 55.140625 83.824219 L 68.402344 83.824219 L 76.742188 112.484375 L 77.003906 112.484375 C 77.105469 111.628906 77.246094 110.542969 77.429688 109.21875 C 77.613281 107.898438 77.816406 106.554688 78.039062 105.195312 C 78.265625 103.832031 78.476562 102.65625 78.671875 101.664062 L 82.488281 83.824219 L 92.636719 83.824219 L 83.625 126.449219 L 70.359375 126.449219 L 61.933594 96.476562 L 61.699219 96.476562 C 61.679688 96.867188 61.621094 97.53125 61.523438 98.476562 C 61.429688 99.417969 61.304688 100.492188 61.148438 101.699219 C 60.992188 102.90625 60.824219 104.125 60.636719 105.355469 C 60.453125 106.589844 60.253906 107.691406 60.042969 108.664062 L 56.28125 126.449219 Z M 46.132812 126.449219 " fill-opacity="1" fill-rule="nonzero"/><path fill="#ff3131" d="M 93.308594 126.449219 L 102.3125 83.824219 L 127.621094 83.824219 L 125.722656 93.070312 L 111.820312 93.070312 L 110.445312 99.773438 L 123.390625 99.773438 L 121.292969 109.011719 L 108.351562 109.011719 L 106.683594 117.0625 L 120.59375 117.0625 L 118.609375 126.449219 Z M 93.308594 126.449219 " fill-opacity="1" fill-rule="nonzero"/><g fill="#ffffff" fill-opacity="1"><g transform="translate(191.142671, 122.856324)"><g><path d="M 0.703125 0 L 7.3125 -31.28125 L 17.046875 -31.28125 L 23.171875 -10.25 L 23.359375 -10.25 C 23.429688 -10.875 23.535156 -11.671875 23.671875 -12.640625 C 23.804688 -13.609375 23.953125 -14.59375 24.109375 -15.59375 C 24.273438 -16.59375 24.429688 -17.457031 24.578125 -18.1875 L 27.390625 -31.28125 L 34.828125 -31.28125 L 28.21875 0 L 18.484375 0 L 12.296875 -21.984375 L 12.125 -21.984375 C 12.113281 -21.703125 12.070312 -21.210938 12 -20.515625 C 11.925781 -19.828125 11.832031 -19.039062 11.71875 -18.15625 C 11.601562 -17.28125 11.476562 -16.390625 11.34375 -15.484375 C 11.207031 -14.578125 11.0625 -13.765625 10.90625 -13.046875 L 8.15625 0 Z M 0.703125 0 "/></g></g></g><g fill="#ffffff" fill-opacity="1"><g transform="translate(225.746646, 122.856324)"><g><path d="M 8.453125 0.421875 C 6.953125 0.421875 5.726562 0.109375 4.78125 -0.515625 C 3.84375 -1.140625 3.148438 -1.972656 2.703125 -3.015625 C 2.265625 -4.054688 2.046875 -5.195312 2.046875 -6.4375 C 2.046875 -7.25 2.097656 -8.078125 2.203125 -8.921875 C 2.304688 -9.773438 2.4375 -10.582031 2.59375 -11.34375 L 5.3125 -24.234375 L 13.578125 -24.234375 L 10.828125 -11.03125 C 10.742188 -10.664062 10.65625 -10.195312 10.5625 -9.625 C 10.46875 -9.050781 10.421875 -8.515625 10.421875 -8.015625 C 10.421875 -7.410156 10.578125 -6.953125 10.890625 -6.640625 C 11.210938 -6.335938 11.597656 -6.1875 12.046875 -6.1875 C 12.523438 -6.1875 13.007812 -6.40625 13.5 -6.84375 C 14 -7.289062 14.460938 -7.976562 14.890625 -8.90625 C 15.328125 -9.832031 15.695312 -11.015625 16 -12.453125 L 18.484375 -24.234375 L 26.765625 -24.234375 L 21.65625 0 L 15.015625 0 L 15.296875 -3.375 L 15.125 -3.375 C 14.59375 -2.476562 14.003906 -1.75 13.359375 -1.1875 C 12.722656 -0.625 12 -0.21875 11.1875 0.03125 C 10.382812 0.289062 9.472656 0.421875 8.453125 0.421875 Z M 8.453125 0.421875 "/></g></g></g><g fill="#ffffff" fill-opacity="1"><g transform="translate(252.993535, 122.856324)"><g><path d="M 8.28125 0.421875 C 6.664062 0.421875 5.226562 0.304688 3.96875 0.078125 C 2.707031 -0.140625 1.601562 -0.472656 0.65625 -0.921875 L 0.65625 -7.578125 C 1.96875 -6.859375 3.1875 -6.351562 4.3125 -6.0625 C 5.445312 -5.78125 6.59375 -5.640625 7.75 -5.640625 C 8.082031 -5.640625 8.476562 -5.671875 8.9375 -5.734375 C 9.394531 -5.804688 9.796875 -5.945312 10.140625 -6.15625 C 10.484375 -6.375 10.65625 -6.703125 10.65625 -7.140625 C 10.65625 -7.472656 10.578125 -7.769531 10.421875 -8.03125 C 10.273438 -8.289062 9.96875 -8.585938 9.5 -8.921875 C 9.03125 -9.265625 8.300781 -9.707031 7.3125 -10.25 C 6.3125 -10.800781 5.488281 -11.40625 4.84375 -12.0625 C 4.207031 -12.71875 3.734375 -13.445312 3.421875 -14.25 C 3.117188 -15.0625 2.96875 -15.976562 2.96875 -17 C 2.96875 -18.53125 3.320312 -19.867188 4.03125 -21.015625 C 4.75 -22.160156 5.847656 -23.054688 7.328125 -23.703125 C 8.804688 -24.347656 10.671875 -24.671875 12.921875 -24.671875 C 14.503906 -24.671875 15.957031 -24.476562 17.28125 -24.09375 C 18.613281 -23.71875 19.890625 -23.148438 21.109375 -22.390625 L 18.53125 -17 C 17.726562 -17.53125 16.816406 -18 15.796875 -18.40625 C 14.773438 -18.8125 13.84375 -19.015625 13 -19.015625 C 12.507812 -19.015625 12.113281 -18.894531 11.8125 -18.65625 C 11.519531 -18.414062 11.375 -18.050781 11.375 -17.5625 C 11.375 -17.289062 11.46875 -17.039062 11.65625 -16.8125 C 11.851562 -16.582031 12.164062 -16.347656 12.59375 -16.109375 C 13.019531 -15.878906 13.570312 -15.59375 14.25 -15.25 C 15.34375 -14.707031 16.242188 -14.09375 16.953125 -13.40625 C 17.660156 -12.726562 18.1875 -11.972656 18.53125 -11.140625 C 18.882812 -10.316406 19.0625 -9.40625 19.0625 -8.40625 C 19.0625 -6.40625 18.617188 -4.753906 17.734375 -3.453125 C 16.847656 -2.148438 15.597656 -1.175781 13.984375 -0.53125 C 12.378906 0.101562 10.476562 0.421875 8.28125 0.421875 Z M 8.28125 0.421875 "/></g></g></g><g fill="#ffffff" fill-opacity="1"><g transform="translate(274.97925, 122.856324)"><g><path d="M 8.6875 0.421875 C 7.445312 0.421875 6.300781 0.128906 5.25 -0.453125 C 4.195312 -1.035156 3.359375 -2 2.734375 -3.34375 C 2.109375 -4.695312 1.796875 -6.519531 1.796875 -8.8125 C 1.796875 -10 1.929688 -11.296875 2.203125 -12.703125 C 2.484375 -14.117188 2.90625 -15.53125 3.46875 -16.9375 C 4.039062 -18.34375 4.753906 -19.628906 5.609375 -20.796875 C 6.460938 -21.960938 7.46875 -22.898438 8.625 -23.609375 C 9.789062 -24.316406 11.109375 -24.671875 12.578125 -24.671875 C 13.503906 -24.671875 14.3125 -24.523438 15 -24.234375 C 15.695312 -23.953125 16.304688 -23.554688 16.828125 -23.046875 C 17.347656 -22.546875 17.800781 -21.945312 18.1875 -21.25 L 18.359375 -21.25 L 19.484375 -24.234375 L 26.125 -24.234375 L 20.984375 0 L 14.375 0 L 14.59375 -2.625 L 14.421875 -2.625 C 13.992188 -2.03125 13.515625 -1.503906 12.984375 -1.046875 C 12.453125 -0.585938 11.84375 -0.226562 11.15625 0.03125 C 10.46875 0.289062 9.644531 0.421875 8.6875 0.421875 Z M 12.09375 -6.21875 C 12.71875 -6.21875 13.289062 -6.503906 13.8125 -7.078125 C 14.34375 -7.660156 14.796875 -8.410156 15.171875 -9.328125 C 15.554688 -10.242188 15.832031 -11.222656 16 -12.265625 C 16.082031 -12.703125 16.144531 -13.144531 16.1875 -13.59375 C 16.238281 -14.039062 16.265625 -14.488281 16.265625 -14.9375 C 16.265625 -15.863281 16.113281 -16.609375 15.8125 -17.171875 C 15.519531 -17.734375 15.082031 -18.015625 14.5 -18.015625 C 14.039062 -18.015625 13.601562 -17.84375 13.1875 -17.5 C 12.769531 -17.164062 12.378906 -16.710938 12.015625 -16.140625 C 11.660156 -15.566406 11.351562 -14.90625 11.09375 -14.15625 C 10.832031 -13.40625 10.625 -12.613281 10.46875 -11.78125 C 10.320312 -10.957031 10.25 -10.125 10.25 -9.28125 C 10.25 -8.300781 10.398438 -7.546875 10.703125 -7.015625 C 11.015625 -6.484375 11.476562 -6.21875 12.09375 -6.21875 Z M 12.09375 -6.21875 "/></g></g></g><g fill="#ffffff" fill-opacity="1"><g transform="translate(301.563145, 122.856324)"><g><path d="M 0.484375 0 L 5.609375 -24.234375 L 12.21875 -24.234375 L 11.953125 -20.859375 L 12.125 -20.859375 C 12.65625 -21.773438 13.238281 -22.507812 13.875 -23.0625 C 14.519531 -23.613281 15.242188 -24.019531 16.046875 -24.28125 C 16.859375 -24.539062 17.773438 -24.671875 18.796875 -24.671875 C 20.316406 -24.671875 21.539062 -24.351562 22.46875 -23.71875 C 23.40625 -23.09375 24.09375 -22.257812 24.53125 -21.21875 C 24.976562 -20.175781 25.203125 -19.03125 25.203125 -17.78125 C 25.203125 -16.976562 25.148438 -16.148438 25.046875 -15.296875 C 24.953125 -14.453125 24.828125 -13.644531 24.671875 -12.875 L 21.953125 0 L 13.671875 0 L 16.4375 -13.21875 C 16.519531 -13.59375 16.601562 -14.066406 16.6875 -14.640625 C 16.769531 -15.222656 16.8125 -15.765625 16.8125 -16.265625 C 16.8125 -16.867188 16.65625 -17.320312 16.34375 -17.625 C 16.03125 -17.9375 15.648438 -18.09375 15.203125 -18.09375 C 14.660156 -18.09375 14.144531 -17.867188 13.65625 -17.421875 C 13.164062 -16.972656 12.71875 -16.285156 12.3125 -15.359375 C 11.90625 -14.441406 11.550781 -13.265625 11.25 -11.828125 L 8.765625 0 Z M 0.484375 0 "/></g></g></g><g fill="#ffffff" fill-opacity="1"><g transform="translate(328.810034, 122.856324)"><g><path d="M 8.765625 0.421875 C 6.660156 0.421875 5.0625 -0.0234375 3.96875 -0.921875 C 2.875 -1.828125 2.328125 -3.316406 2.328125 -5.390625 C 2.328125 -5.972656 2.378906 -6.640625 2.484375 -7.390625 C 2.597656 -8.148438 2.71875 -8.820312 2.84375 -9.40625 L 4.640625 -18.015625 L 1.34375 -18.015625 L 2.21875 -22.078125 L 6.890625 -23.953125 L 9.8125 -29.09375 L 15.34375 -29.09375 L 14.296875 -24.234375 L 20.453125 -24.234375 L 19.109375 -18.015625 L 12.921875 -18.015625 L 11.125 -9.8125 C 11.039062 -9.40625 10.960938 -8.988281 10.890625 -8.5625 C 10.816406 -8.144531 10.78125 -7.816406 10.78125 -7.578125 C 10.78125 -7.085938 10.90625 -6.738281 11.15625 -6.53125 C 11.40625 -6.320312 11.726562 -6.21875 12.125 -6.21875 C 12.664062 -6.21875 13.28125 -6.3125 13.96875 -6.5 C 14.65625 -6.695312 15.347656 -6.941406 16.046875 -7.234375 L 16.046875 -1 C 15.148438 -0.5625 14.101562 -0.21875 12.90625 0.03125 C 11.71875 0.289062 10.335938 0.421875 8.765625 0.421875 Z M 8.765625 0.421875 "/></g></g></g><g fill="#ffffff" fill-opacity="1"><g transform="translate(348.828156, 122.856324)"><g><path d="M 8.6875 0.421875 C 7.445312 0.421875 6.300781 0.128906 5.25 -0.453125 C 4.195312 -1.035156 3.359375 -2 2.734375 -3.34375 C 2.109375 -4.695312 1.796875 -6.519531 1.796875 -8.8125 C 1.796875 -10 1.929688 -11.296875 2.203125 -12.703125 C 2.484375 -14.117188 2.90625 -15.53125 3.46875 -16.9375 C 4.039062 -18.34375 4.753906 -19.628906 5.609375 -20.796875 C 6.460938 -21.960938 7.46875 -22.898438 8.625 -23.609375 C 9.789062 -24.316406 11.109375 -24.671875 12.578125 -24.671875 C 13.503906 -24.671875 14.3125 -24.523438 15 -24.234375 C 15.695312 -23.953125 16.304688 -23.554688 16.828125 -23.046875 C 17.347656 -22.546875 17.800781 -21.945312 18.1875 -21.25 L 18.359375 -21.25 L 19.484375 -24.234375 L 26.125 -24.234375 L 20.984375 0 L 14.375 0 L 14.59375 -2.625 L 14.421875 -2.625 C 13.992188 -2.03125 13.515625 -1.503906 12.984375 -1.046875 C 12.453125 -0.585938 11.84375 -0.226562 11.15625 0.03125 C 10.46875 0.289062 9.644531 0.421875 8.6875 0.421875 Z M 12.09375 -6.21875 C 12.71875 -6.21875 13.289062 -6.503906 13.8125 -7.078125 C 14.34375 -7.660156 14.796875 -8.410156 15.171875 -9.328125 C 15.554688 -10.242188 15.832031 -11.222656 16 -12.265625 C 16.082031 -12.703125 16.144531 -13.144531 16.1875 -13.59375 C 16.238281 -14.039062 16.265625 -14.488281 16.265625 -14.9375 C 16.265625 -15.863281 16.113281 -16.609375 15.8125 -17.171875 C 15.519531 -17.734375 15.082031 -18.015625 14.5 -18.015625 C 14.039062 -18.015625 13.601562 -17.84375 13.1875 -17.5 C 12.769531 -17.164062 12.378906 -16.710938 12.015625 -16.140625 C 11.660156 -15.566406 11.351562 -14.90625 11.09375 -14.15625 C 10.832031 -13.40625 10.625 -12.613281 10.46875 -11.78125 C 10.320312 -10.957031 10.25 -10.125 10.25 -9.28125 C 10.25 -8.300781 10.398438 -7.546875 10.703125 -7.015625 C 11.015625 -6.484375 11.476562 -6.21875 12.09375 -6.21875 Z M 12.09375 -6.21875 "/></g></g></g><g fill="#ffffff" fill-opacity="1"><g transform="translate(375.412051, 122.856324)"><g><path d="M 0.484375 0 L 5.609375 -24.234375 L 12.21875 -24.234375 L 11.828125 -20.1875 L 12 -20.1875 C 12.664062 -21.332031 13.347656 -22.226562 14.046875 -22.875 C 14.753906 -23.53125 15.53125 -23.992188 16.375 -24.265625 C 17.226562 -24.535156 18.195312 -24.671875 19.28125 -24.671875 C 19.59375 -24.671875 19.921875 -24.648438 20.265625 -24.609375 C 20.617188 -24.578125 20.859375 -24.539062 20.984375 -24.5 L 19.1875 -16.296875 C 18.875 -16.429688 18.488281 -16.539062 18.03125 -16.625 C 17.570312 -16.71875 17.082031 -16.765625 16.5625 -16.765625 C 15.914062 -16.765625 15.3125 -16.660156 14.75 -16.453125 C 14.1875 -16.253906 13.671875 -15.921875 13.203125 -15.453125 C 12.742188 -14.992188 12.332031 -14.367188 11.96875 -13.578125 C 11.601562 -12.785156 11.289062 -11.8125 11.03125 -10.65625 L 8.765625 0 Z M 0.484375 0 "/></g></g></g><g fill="#ffffff" fill-opacity="1"><g transform="translate(394.553299, 122.856324)"><g><path d="M 8.6875 0.421875 C 7.445312 0.421875 6.300781 0.128906 5.25 -0.453125 C 4.195312 -1.035156 3.359375 -2 2.734375 -3.34375 C 2.109375 -4.695312 1.796875 -6.519531 1.796875 -8.8125 C 1.796875 -10 1.929688 -11.296875 2.203125 -12.703125 C 2.484375 -14.117188 2.90625 -15.53125 3.46875 -16.9375 C 4.039062 -18.34375 4.753906 -19.628906 5.609375 -20.796875 C 6.460938 -21.960938 7.46875 -22.898438 8.625 -23.609375 C 9.789062 -24.316406 11.109375 -24.671875 12.578125 -24.671875 C 13.503906 -24.671875 14.3125 -24.523438 15 -24.234375 C 15.695312 -23.953125 16.304688 -23.554688 16.828125 -23.046875 C 17.347656 -22.546875 17.800781 -21.945312 18.1875 -21.25 L 18.359375 -21.25 L 19.484375 -24.234375 L 26.125 -24.234375 L 20.984375 0 L 14.375 0 L 14.59375 -2.625 L 14.421875 -2.625 C 13.992188 -2.03125 13.515625 -1.503906 12.984375 -1.046875 C 12.453125 -0.585938 11.84375 -0.226562 11.15625 0.03125 C 10.46875 0.289062 9.644531 0.421875 8.6875 0.421875 Z M 12.09375 -6.21875 C 12.71875 -6.21875 13.289062 -6.503906 13.8125 -7.078125 C 14.34375 -7.660156 14.796875 -8.410156 15.171875 -9.328125 C 15.554688 -10.242188 15.832031 -11.222656 16 -12.265625 C 16.082031 -12.703125 16.144531 -13.144531 16.1875 -13.59375 C 16.238281 -14.039062 16.265625 -14.488281 16.265625 -14.9375 C 16.265625 -15.863281 16.113281 -16.609375 15.8125 -17.171875 C 15.519531 -17.734375 15.082031 -18.015625 14.5 -18.015625 C 14.039062 -18.015625 13.601562 -17.84375 13.1875 -17.5 C 12.769531 -17.164062 12.378906 -16.710938 12.015625 -16.140625 C 11.660156 -15.566406 11.351562 -14.90625 11.09375 -14.15625 C 10.832031 -13.40625 10.625 -12.613281 10.46875 -11.78125 C 10.320312 -10.957031 10.25 -10.125 10.25 -9.28125 C 10.25 -8.300781 10.398438 -7.546875 10.703125 -7.015625 C 11.015625 -6.484375 11.476562 -6.21875 12.09375 -6.21875 Z M 12.09375 -6.21875 "/></g></g></g><g fill="#1e3d73" fill-opacity="1"><g transform="translate(421.147103, 122.856324)"><g/></g></g><g fill="#ff3131" fill-opacity="1"><g transform="translate(432.536131, 122.856324)"><g><path d="M 0.703125 0 L 7.3125 -31.28125 L 25.890625 -31.28125 L 24.5 -24.5 L 14.296875 -24.5 L 13.28125 -19.578125 L 22.78125 -19.578125 L 21.25 -12.796875 L 11.75 -12.796875 L 10.53125 -6.890625 L 20.734375 -6.890625 L 19.28125 0 Z M 0.703125 0 "/></g></g></g><g fill="#ff3131" fill-opacity="1"><g transform="translate(457.152432, 122.856324)"><g><path d="M -2.546875 0 L 7.578125 -12.359375 L 3.140625 -24.234375 L 12.171875 -24.234375 L 13.796875 -17.515625 L 17.78125 -24.234375 L 27.59375 -24.234375 L 17.65625 -11.921875 L 22.53125 0 L 13.375 0 L 11.65625 -7.015625 L 7.140625 0 Z M -2.546875 0 "/></g></g></g><g fill="#ff3131" fill-opacity="1"><g transform="translate(481.939829, 122.856324)"><g><path d="M -1.75 10.53125 L 5.609375 -24.234375 L 12.21875 -24.234375 L 11.953125 -21.515625 L 12.125 -21.515625 C 12.570312 -22.203125 13.066406 -22.78125 13.609375 -23.25 C 14.148438 -23.71875 14.753906 -24.070312 15.421875 -24.3125 C 16.097656 -24.550781 16.84375 -24.671875 17.65625 -24.671875 C 19.101562 -24.671875 20.363281 -24.316406 21.4375 -23.609375 C 22.507812 -22.910156 23.335938 -21.894531 23.921875 -20.5625 C 24.503906 -19.226562 24.796875 -17.613281 24.796875 -15.71875 C 24.796875 -14.125 24.628906 -12.546875 24.296875 -10.984375 C 23.972656 -9.421875 23.503906 -7.953125 22.890625 -6.578125 C 22.273438 -5.203125 21.519531 -3.988281 20.625 -2.9375 C 19.738281 -1.894531 18.734375 -1.070312 17.609375 -0.46875 C 16.492188 0.125 15.265625 0.421875 13.921875 0.421875 C 13.191406 0.421875 12.523438 0.289062 11.921875 0.03125 C 11.316406 -0.21875 10.769531 -0.570312 10.28125 -1.03125 C 9.800781 -1.5 9.367188 -2.046875 8.984375 -2.671875 L 8.8125 -2.671875 C 8.71875 -1.535156 8.59375 -0.398438 8.4375 0.734375 C 8.289062 1.867188 8.015625 3.378906 7.609375 5.265625 L 6.53125 10.53125 Z M 12.265625 -6.21875 C 12.710938 -6.21875 13.144531 -6.382812 13.5625 -6.71875 C 13.976562 -7.0625 14.351562 -7.519531 14.6875 -8.09375 C 15.019531 -8.675781 15.3125 -9.335938 15.5625 -10.078125 C 15.8125 -10.816406 16.003906 -11.601562 16.140625 -12.4375 C 16.273438 -13.269531 16.34375 -14.101562 16.34375 -14.9375 C 16.34375 -15.9375 16.1875 -16.695312 15.875 -17.21875 C 15.570312 -17.75 15.113281 -18.015625 14.5 -18.015625 C 14.070312 -18.015625 13.675781 -17.882812 13.3125 -17.625 C 12.945312 -17.375 12.613281 -17.023438 12.3125 -16.578125 C 12.007812 -16.140625 11.734375 -15.628906 11.484375 -15.046875 C 11.242188 -14.472656 11.039062 -13.859375 10.875 -13.203125 C 10.707031 -12.546875 10.582031 -11.882812 10.5 -11.21875 C 10.414062 -10.550781 10.375 -9.90625 10.375 -9.28125 C 10.375 -8.375 10.539062 -7.632812 10.875 -7.0625 C 11.207031 -6.5 11.671875 -6.21875 12.265625 -6.21875 Z M 12.265625 -6.21875 "/></g></g></g><g fill="#ff3131" fill-opacity="1"><g transform="translate(508.523724, 122.856324)"><g><path d="M 0.484375 0 L 5.609375 -24.234375 L 12.21875 -24.234375 L 11.828125 -20.1875 L 12 -20.1875 C 12.664062 -21.332031 13.347656 -22.226562 14.046875 -22.875 C 14.753906 -23.53125 15.53125 -23.992188 16.375 -24.265625 C 17.226562 -24.535156 18.195312 -24.671875 19.28125 -24.671875 C 19.59375 -24.671875 19.921875 -24.648438 20.265625 -24.609375 C 20.617188 -24.578125 20.859375 -24.539062 20.984375 -24.5 L 19.1875 -16.296875 C 18.875 -16.429688 18.488281 -16.539062 18.03125 -16.625 C 17.570312 -16.71875 17.082031 -16.765625 16.5625 -16.765625 C 15.914062 -16.765625 15.3125 -16.660156 14.75 -16.453125 C 14.1875 -16.253906 13.671875 -15.921875 13.203125 -15.453125 C 12.742188 -14.992188 12.332031 -14.367188 11.96875 -13.578125 C 11.601562 -12.785156 11.289062 -11.8125 11.03125 -10.65625 L 8.765625 0 Z M 0.484375 0 "/></g></g></g><g fill="#ff3131" fill-opacity="1"><g transform="translate(527.664984, 122.856324)"><g><path d="M 11.375 0.421875 C 9.34375 0.421875 7.613281 0.0390625 6.1875 -0.71875 C 4.757812 -1.488281 3.671875 -2.59375 2.921875 -4.03125 C 2.171875 -5.46875 1.796875 -7.175781 1.796875 -9.15625 C 1.796875 -11.132812 2.078125 -13.050781 2.640625 -14.90625 C 3.203125 -16.757812 4.054688 -18.421875 5.203125 -19.890625 C 6.359375 -21.359375 7.804688 -22.519531 9.546875 -23.375 C 11.285156 -24.238281 13.332031 -24.671875 15.6875 -24.671875 C 18.40625 -24.671875 20.535156 -24.054688 22.078125 -22.828125 C 23.628906 -21.597656 24.40625 -19.960938 24.40625 -17.921875 C 24.40625 -16.585938 24.148438 -15.375 23.640625 -14.28125 C 23.128906 -13.1875 22.34375 -12.25 21.28125 -11.46875 C 20.21875 -10.6875 18.863281 -10.082031 17.21875 -9.65625 C 15.582031 -9.238281 13.632812 -9.03125 11.375 -9.03125 L 10.125 -9.03125 C 10.125 -8.96875 10.125 -8.910156 10.125 -8.859375 C 10.125 -8.816406 10.125 -8.757812 10.125 -8.6875 C 10.125 -7.601562 10.414062 -6.800781 11 -6.28125 C 11.582031 -5.769531 12.457031 -5.515625 13.625 -5.515625 C 14.851562 -5.515625 16.015625 -5.695312 17.109375 -6.0625 C 18.210938 -6.4375 19.390625 -6.953125 20.640625 -7.609375 L 20.640625 -1.75 C 19.347656 -1.09375 18.007812 -0.566406 16.625 -0.171875 C 15.238281 0.222656 13.488281 0.421875 11.375 0.421875 Z M 10.953125 -14.203125 L 11.578125 -14.203125 C 12.816406 -14.203125 13.796875 -14.363281 14.515625 -14.6875 C 15.242188 -15.019531 15.765625 -15.4375 16.078125 -15.9375 C 16.398438 -16.4375 16.5625 -16.9375 16.5625 -17.4375 C 16.5625 -17.894531 16.414062 -18.28125 16.125 -18.59375 C 15.84375 -18.90625 15.390625 -19.0625 14.765625 -19.0625 C 14.117188 -19.0625 13.523438 -18.8125 12.984375 -18.3125 C 12.441406 -17.8125 11.992188 -17.1875 11.640625 -16.4375 C 11.285156 -15.6875 11.054688 -14.941406 10.953125 -14.203125 Z M 10.953125 -14.203125 "/></g></g></g><g fill="#ff3131" fill-opacity="1"><g transform="translate(553.029826, 122.856324)"><g><path d="M 8.28125 0.421875 C 6.664062 0.421875 5.226562 0.304688 3.96875 0.078125 C 2.707031 -0.140625 1.601562 -0.472656 0.65625 -0.921875 L 0.65625 -7.578125 C 1.96875 -6.859375 3.1875 -6.351562 4.3125 -6.0625 C 5.445312 -5.78125 6.59375 -5.640625 7.75 -5.640625 C 8.082031 -5.640625 8.476562 -5.671875 8.9375 -5.734375 C 9.394531 -5.804688 9.796875 -5.945312 10.140625 -6.15625 C 10.484375 -6.375 10.65625 -6.703125 10.65625 -7.140625 C 10.65625 -7.472656 10.578125 -7.769531 10.421875 -8.03125 C 10.273438 -8.289062 9.96875 -8.585938 9.5 -8.921875 C 9.03125 -9.265625 8.300781 -9.707031 7.3125 -10.25 C 6.3125 -10.800781 5.488281 -11.40625 4.84375 -12.0625 C 4.207031 -12.71875 3.734375 -13.445312 3.421875 -14.25 C 3.117188 -15.0625 2.96875 -15.976562 2.96875 -17 C 2.96875 -18.53125 3.320312 -19.867188 4.03125 -21.015625 C 4.75 -22.160156 5.847656 -23.054688 7.328125 -23.703125 C 8.804688 -24.347656 10.671875 -24.671875 12.921875 -24.671875 C 14.503906 -24.671875 15.957031 -24.476562 17.28125 -24.09375 C 18.613281 -23.71875 19.890625 -23.148438 21.109375 -22.390625 L 18.53125 -17 C 17.726562 -17.53125 16.816406 -18 15.796875 -18.40625 C 14.773438 -18.8125 13.84375 -19.015625 13 -19.015625 C 12.507812 -19.015625 12.113281 -18.894531 11.8125 -18.65625 C 11.519531 -18.414062 11.375 -18.050781 11.375 -17.5625 C 11.375 -17.289062 11.46875 -17.039062 11.65625 -16.8125 C 11.851562 -16.582031 12.164062 -16.347656 12.59375 -16.109375 C 13.019531 -15.878906 13.570312 -15.59375 14.25 -15.25 C 15.34375 -14.707031 16.242188 -14.09375 16.953125 -13.40625 C 17.660156 -12.726562 18.1875 -11.972656 18.53125 -11.140625 C 18.882812 -10.316406 19.0625 -9.40625 19.0625 -8.40625 C 19.0625 -6.40625 18.617188 -4.753906 17.734375 -3.453125 C 16.847656 -2.148438 15.597656 -1.175781 13.984375 -0.53125 C 12.378906 0.101562 10.476562 0.421875 8.28125 0.421875 Z M 8.28125 0.421875 "/></g></g></g><g fill="#ff3131" fill-opacity="1"><g transform="translate(575.015541, 122.856324)"><g><path d="M 8.28125 0.421875 C 6.664062 0.421875 5.226562 0.304688 3.96875 0.078125 C 2.707031 -0.140625 1.601562 -0.472656 0.65625 -0.921875 L 0.65625 -7.578125 C 1.96875 -6.859375 3.1875 -6.351562 4.3125 -6.0625 C 5.445312 -5.78125 6.59375 -5.640625 7.75 -5.640625 C 8.082031 -5.640625 8.476562 -5.671875 8.9375 -5.734375 C 9.394531 -5.804688 9.796875 -5.945312 10.140625 -6.15625 C 10.484375 -6.375 10.65625 -6.703125 10.65625 -7.140625 C 10.65625 -7.472656 10.578125 -7.769531 10.421875 -8.03125 C 10.273438 -8.289062 9.96875 -8.585938 9.5 -8.921875 C 9.03125 -9.265625 8.300781 -9.707031 7.3125 -10.25 C 6.3125 -10.800781 5.488281 -11.40625 4.84375 -12.0625 C 4.207031 -12.71875 3.734375 -13.445312 3.421875 -14.25 C 3.117188 -15.0625 2.96875 -15.976562 2.96875 -17 C 2.96875 -18.53125 3.320312 -19.867188 4.03125 -21.015625 C 4.75 -22.160156 5.847656 -23.054688 7.328125 -23.703125 C 8.804688 -24.347656 10.671875 -24.671875 12.921875 -24.671875 C 14.503906 -24.671875 15.957031 -24.476562 17.28125 -24.09375 C 18.613281 -23.71875 19.890625 -23.148438 21.109375 -22.390625 L 18.53125 -17 C 17.726562 -17.53125 16.816406 -18 15.796875 -18.40625 C 14.773438 -18.8125 13.84375 -19.015625 13 -19.015625 C 12.507812 -19.015625 12.113281 -18.894531 11.8125 -18.65625 C 11.519531 -18.414062 11.375 -18.050781 11.375 -17.5625 C 11.375 -17.289062 11.46875 -17.039062 11.65625 -16.8125 C 11.851562 -16.582031 12.164062 -16.347656 12.59375 -16.109375 C 13.019531 -15.878906 13.570312 -15.59375 14.25 -15.25 C 15.34375 -14.707031 16.242188 -14.09375 16.953125 -13.40625 C 17.660156 -12.726562 18.1875 -11.972656 18.53125 -11.140625 C 18.882812 -10.316406 19.0625 -9.40625 19.0625 -8.40625 C 19.0625 -6.40625 18.617188 -4.753906 17.734375 -3.453125 C 16.847656 -2.148438 15.597656 -1.175781 13.984375 -0.53125 C 12.378906 0.101562 10.476562 0.421875 8.28125 0.421875 Z M 8.28125 0.421875 "/></g></g></g></svg>