<svg xmlns="http://www.w3.org/2000/svg" xmlns:xlink="http://www.w3.org/1999/xlink" width="500" zoomAndPan="magnify" viewBox="0 0 375 374.999991" height="500" preserveAspectRatio="xMidYMid meet" version="1.0"><defs><g/><clipPath id="4edd0705a3"><path d="M 13.042969 124.570312 L 361.792969 124.570312 L 361.792969 261 L 13.042969 261 Z M 13.042969 124.570312 " clip-rule="nonzero"/></clipPath><clipPath id="a6c00409c4"><path d="M 50 124.570312 L 163 124.570312 L 163 159 L 50 159 Z M 50 124.570312 " clip-rule="nonzero"/></clipPath><clipPath id="d16306b192"><path d="M 2.25 106.671875 L 237.09375 106.671875 L 237.09375 260.929688 L 2.25 260.929688 Z M 2.25 106.671875 " clip-rule="nonzero"/></clipPath><clipPath id="bacb3c9e87"><path d="M 37.5 137.160156 L 80.515625 137.160156 L 80.515625 147.308594 L 37.5 147.308594 Z M 37.5 137.160156 " clip-rule="nonzero"/></clipPath><clipPath id="9c6ea217f1"><path d="M 75.414062 137.160156 C 78.21875 137.160156 80.488281 139.429688 80.488281 142.234375 C 80.488281 145.035156 78.21875 147.308594 75.414062 147.308594 L 42.574219 147.308594 C 39.773438 147.308594 37.5 145.035156 37.5 142.234375 C 37.5 139.429688 39.773438 137.160156 42.574219 137.160156 Z M 75.414062 137.160156 " clip-rule="nonzero"/></clipPath><clipPath id="0fbe8f0f8f"><path d="M 13.042969 239.082031 L 237.125 239.082031 L 237.125 248.957031 L 13.042969 248.957031 Z M 13.042969 239.082031 " clip-rule="nonzero"/></clipPath><clipPath id="ca6c2a7350"><path d="M 232.152344 239.082031 C 234.882812 239.082031 237.09375 241.292969 237.09375 244.019531 C 237.09375 246.746094 234.882812 248.957031 232.152344 248.957031 L 17.980469 248.957031 C 15.253906 248.957031 13.042969 246.746094 13.042969 244.019531 C 13.042969 241.292969 15.253906 239.082031 17.980469 239.082031 Z M 232.152344 239.082031 " clip-rule="nonzero"/></clipPath><clipPath id="4821eff7ca"><path d="M 47.523438 115.640625 L 253.800781 115.640625 L 253.800781 124.734375 L 47.523438 124.734375 Z M 47.523438 115.640625 " clip-rule="nonzero"/></clipPath><clipPath id="88ca1c3a92"><path d="M 249.222656 115.640625 C 251.734375 115.640625 253.769531 117.675781 253.769531 120.1875 C 253.769531 122.699219 251.734375 124.734375 249.222656 124.734375 L 52.070312 124.734375 C 49.558594 124.734375 47.523438 122.699219 47.523438 120.1875 C 47.523438 117.675781 49.558594 115.640625 52.070312 115.640625 Z M 249.222656 115.640625 " clip-rule="nonzero"/></clipPath><clipPath id="63731c243f"><path d="M 31.597656 163.453125 L 74.613281 163.453125 L 74.613281 173.605469 L 31.597656 173.605469 Z M 31.597656 163.453125 " clip-rule="nonzero"/></clipPath><clipPath id="e8384f867c"><path d="M 69.511719 163.453125 C 72.316406 163.453125 74.585938 165.726562 74.585938 168.53125 C 74.585938 171.332031 72.316406 173.605469 69.511719 173.605469 L 36.671875 173.605469 C 33.871094 173.605469 31.597656 171.332031 31.597656 168.53125 C 31.597656 165.726562 33.871094 163.453125 36.671875 163.453125 Z M 69.511719 163.453125 " clip-rule="nonzero"/></clipPath><clipPath id="eb6f3894a7"><path d="M 26.027344 190.105469 L 69.046875 190.105469 L 69.046875 200.253906 L 26.027344 200.253906 Z M 26.027344 190.105469 " clip-rule="nonzero"/></clipPath><clipPath id="b53ac5b5c2"><path d="M 63.945312 190.105469 C 66.746094 190.105469 69.019531 192.375 69.019531 195.179688 C 69.019531 197.980469 66.746094 200.253906 63.945312 200.253906 L 31.105469 200.253906 C 28.300781 200.253906 26.027344 197.980469 26.027344 195.179688 C 26.027344 192.375 28.300781 190.105469 31.105469 190.105469 Z M 63.945312 190.105469 " clip-rule="nonzero"/></clipPath><clipPath id="e0cad0a5c0"><path d="M 19.398438 216.179688 L 62.417969 216.179688 L 62.417969 226.332031 L 19.398438 226.332031 Z M 19.398438 216.179688 " clip-rule="nonzero"/></clipPath><clipPath id="e804922cbe"><path d="M 57.316406 216.179688 C 60.117188 216.179688 62.390625 218.453125 62.390625 221.257812 C 62.390625 224.058594 60.117188 226.332031 57.316406 226.332031 L 24.476562 226.332031 C 21.671875 226.332031 19.398438 224.058594 19.398438 221.257812 C 19.398438 218.453125 21.671875 216.179688 24.476562 216.179688 Z M 57.316406 216.179688 " clip-rule="nonzero"/></clipPath></defs><rect x="-37.5" width="450" fill="#ffffff" y="-37.499999" height="449.999989" fill-opacity="1"/><rect x="-37.5" width="450" fill="#1e3d73" y="-37.499999" height="449.999989" fill-opacity="1"/><g clip-path="url(#4edd0705a3)"><path fill="#ffffff" d="M 296.035156 190.886719 C 296.175781 189.902344 297.15625 189.058594 298.140625 189.058594 L 306.78125 189.058594 C 307.765625 189.058594 308.46875 189.902344 308.328125 190.886719 C 308.1875 191.871094 307.203125 192.714844 306.21875 192.714844 L 297.578125 192.714844 C 296.597656 192.714844 295.894531 191.871094 296.035156 190.886719 M 306.082031 234.019531 C 301.515625 234.019531 297.226562 237.746094 296.527344 242.3125 C 295.824219 246.878906 298.984375 250.601562 303.621094 250.601562 C 308.1875 250.601562 312.472656 246.878906 313.175781 242.3125 C 313.808594 237.746094 310.648438 234.019531 306.082031 234.019531 Z M 144.21875 234.019531 C 139.652344 234.019531 135.367188 237.746094 134.664062 242.3125 C 133.960938 246.878906 137.125 250.601562 141.761719 250.601562 C 146.328125 250.601562 150.613281 246.878906 151.316406 242.3125 C 152.015625 237.746094 148.855469 234.019531 144.21875 234.019531 Z M 292.101562 169.109375 L 293.222656 161.589844 L 293.714844 158.21875 C 293.996094 156.183594 295.964844 154.496094 298 154.496094 L 329.542969 154.496094 C 330.738281 154.496094 331.652344 154.988281 332.285156 155.902344 L 348.371094 181.613281 C 348.792969 182.316406 348.792969 183.160156 348.230469 184 C 347.738281 184.773438 346.898438 185.265625 346.054688 185.265625 L 293.363281 185.265625 C 291.328125 185.265625 289.921875 183.582031 290.203125 181.542969 Z M 29.144531 238.585938 L 125.320312 238.585938 C 124.898438 239.78125 124.546875 241.046875 124.40625 242.3125 C 122.863281 252.566406 129.957031 260.929688 140.214844 260.929688 C 150.472656 260.929688 160.097656 252.566406 161.640625 242.3125 C 163.1875 232.054688 156.09375 223.695312 145.835938 223.695312 C 141.761719 223.695312 137.828125 224.957031 134.453125 227.207031 C 138.246094 224.328125 142.882812 222.570312 147.660156 222.570312 C 157.214844 222.570312 164.03125 229.523438 164.03125 238.585938 L 287.183594 238.585938 C 286.761719 239.78125 286.410156 241.046875 286.269531 242.3125 C 284.722656 252.566406 291.820312 260.929688 302.074219 260.929688 C 312.332031 260.929688 321.957031 252.566406 323.503906 242.3125 C 325.046875 232.054688 317.953125 223.695312 307.695312 223.695312 C 303.128906 223.695312 298.773438 225.308594 295.121094 227.980469 C 299.054688 224.609375 304.113281 222.5 309.382812 222.5 C 318.9375 222.5 325.820312 229.453125 325.75 238.515625 L 351.253906 238.515625 C 353.078125 238.515625 354.765625 237.042969 355.046875 235.214844 L 356.097656 228.261719 L 356.589844 228.261719 C 357.433594 228.261719 358.277344 227.558594 358.417969 226.714844 C 358.558594 225.871094 357.925781 225.167969 357.082031 225.167969 L 349.074219 225.167969 L 349.566406 222.078125 L 355.539062 222.078125 C 356.378906 222.078125 357.222656 221.375 357.363281 220.53125 L 361.367188 193.835938 C 361.507812 193.0625 361.367188 192.433594 361.015625 191.800781 L 332.707031 146.488281 C 332.214844 145.644531 331.371094 145.222656 330.316406 145.222656 L 295.894531 145.222656 L 297.507812 134.472656 C 297.929688 131.664062 296.738281 129.066406 294.347656 127.589844 L 289.429688 124.570312 L 283.597656 163.699219 L 276.574219 210.277344 L 269.550781 210.277344 C 273.835938 181.683594 278.191406 153.160156 282.476562 124.570312 L 278.261719 124.570312 L 267.160156 198.050781 L 264.5625 198.050781 L 274.324219 132.578125 C 274.605469 130.46875 274.117188 128.574219 272.710938 127.027344 C 271.304688 125.410156 269.550781 124.640625 267.441406 124.640625 L 180.1875 124.640625 C 177.167969 124.640625 174.707031 126.816406 174.289062 129.765625 L 174.21875 129.976562 C 173.9375 131.734375 174.425781 133.421875 175.621094 134.753906 C 176.816406 136.160156 178.363281 136.863281 180.1875 136.863281 L 222.902344 136.863281 C 224.167969 136.863281 225.21875 137.355469 225.992188 138.269531 C 226.835938 139.179688 227.117188 140.304688 226.90625 141.570312 L 226.695312 142.695312 C 226.414062 144.730469 224.65625 146.207031 222.621094 146.207031 L 150.261719 146.207031 C 147.308594 146.207031 144.78125 148.3125 144.359375 151.265625 L 144.289062 151.476562 C 144.007812 153.300781 144.5 154.917969 145.625 156.324219 C 146.820312 157.726562 148.363281 158.429688 150.191406 158.429688 L 249.386719 158.429688 L 241.589844 210.558594 C 193.464844 210.558594 109.445312 210.558594 59.285156 210.558594 C 52.539062 210.558594 52.609375 220.742188 59.285156 220.742188 L 105.089844 220.742188 C 110.988281 220.742188 110.917969 229.875 105.019531 229.875 L 31.464844 229.875 C 25.914062 229.875 24.367188 238.585938 29.144531 238.585938 Z M 17.695312 146.207031 L 75.371094 146.207031 C 76.636719 146.207031 77.691406 146.910156 78.464844 148.3125 C 79.234375 149.648438 79.585938 151.335938 79.445312 153.089844 L 79.445312 153.300781 C 79.164062 156.253906 77.410156 158.429688 75.371094 158.429688 L 17.625 158.429688 C 16.359375 158.429688 15.304688 157.726562 14.535156 156.324219 C 13.761719 154.988281 13.410156 153.300781 13.550781 151.546875 L 13.550781 151.335938 C 13.902344 148.3125 15.65625 146.207031 17.695312 146.207031 Z M 17.695312 146.207031 " fill-opacity="1" fill-rule="evenodd"/></g><path fill="#ffffff" d="M 305.308594 239.078125 C 303.480469 239.078125 301.863281 240.554688 301.582031 242.3125 C 301.304688 244.136719 302.566406 245.542969 304.324219 245.542969 C 306.148438 245.542969 307.765625 244.066406 308.046875 242.3125 C 308.328125 240.554688 307.132812 239.078125 305.308594 239.078125 " fill-opacity="1" fill-rule="evenodd"/><path fill="#ffffff" d="M 143.445312 239.078125 C 141.621094 239.078125 140.003906 240.554688 139.722656 242.3125 C 139.441406 244.136719 140.707031 245.542969 142.464844 245.542969 C 144.289062 245.542969 145.90625 244.066406 146.1875 242.3125 C 146.539062 240.554688 145.273438 239.078125 143.445312 239.078125 " fill-opacity="1" fill-rule="evenodd"/><g clip-path="url(#a6c00409c4)"><path fill="#ffffff" d="M 123.144531 146.207031 L 95.886719 146.207031 C 92.863281 146.207031 90.40625 148.382812 89.984375 151.335938 L 89.914062 151.546875 C 89.632812 153.300781 90.125 154.988281 91.320312 156.324219 C 92.511719 157.726562 94.058594 158.429688 95.886719 158.429688 L 123.144531 158.429688 C 126.09375 158.429688 128.625 156.324219 129.042969 153.371094 L 129.113281 153.160156 C 129.394531 151.335938 128.902344 149.71875 127.78125 148.3125 C 126.65625 146.910156 124.898438 146.207031 123.144531 146.207031 M 162.273438 131.734375 L 162.273438 131.523438 C 162.484375 129.765625 162.132812 128.082031 161.21875 126.746094 C 160.308594 125.339844 159.113281 124.640625 157.636719 124.640625 L 54.859375 124.640625 C 52.539062 124.640625 50.574219 126.816406 50.222656 129.765625 L 50.222656 129.976562 C 50.011719 131.734375 50.363281 133.421875 51.277344 134.753906 C 52.1875 136.160156 53.382812 136.863281 54.859375 136.863281 L 157.636719 136.863281 C 159.957031 136.792969 161.921875 134.683594 162.273438 131.734375 Z M 162.273438 131.734375 " fill-opacity="1" fill-rule="evenodd"/></g><g clip-path="url(#d16306b192)"><path fill="#1e3d73" d="M 2.25 106.671875 L 237.253906 106.671875 L 237.253906 260.929688 L 2.25 260.929688 Z M 2.25 106.671875 " fill-opacity="1" fill-rule="nonzero"/></g><g fill="#1e3d73" fill-opacity="1"><g transform="translate(208.999201, 239.90085)"><g><path d="M 4.515625 0 L 31.109375 -124.640625 L 57.125 -124.640625 L 30.515625 0 Z M 4.515625 0 "/></g></g></g><g clip-path="url(#bacb3c9e87)"><g clip-path="url(#9c6ea217f1)"><path fill="#ffffff" d="M 37.5 137.160156 L 80.476562 137.160156 L 80.476562 147.308594 L 37.5 147.308594 Z M 37.5 137.160156 " fill-opacity="1" fill-rule="nonzero"/></g></g><g clip-path="url(#0fbe8f0f8f)"><g clip-path="url(#ca6c2a7350)"><path fill="#ffffff" d="M 13.042969 239.082031 L 237.089844 239.082031 L 237.089844 248.957031 L 13.042969 248.957031 Z M 13.042969 239.082031 " fill-opacity="1" fill-rule="nonzero"/></g></g><g fill="#1e3d73" fill-opacity="1"><g transform="translate(208.999201, 222.493764)"><g><path d="M 4.515625 0 L 31.109375 -124.640625 L 57.125 -124.640625 L 30.515625 0 Z M 4.515625 0 "/></g></g></g><g clip-path="url(#4821eff7ca)"><g clip-path="url(#88ca1c3a92)"><path fill="#ffffff" d="M 47.523438 115.640625 L 253.765625 115.640625 L 253.765625 124.734375 L 47.523438 124.734375 Z M 47.523438 115.640625 " fill-opacity="1" fill-rule="nonzero"/></g></g><g clip-path="url(#63731c243f)"><g clip-path="url(#e8384f867c)"><path fill="#ffffff" d="M 31.597656 163.453125 L 74.574219 163.453125 L 74.574219 173.605469 L 31.597656 173.605469 Z M 31.597656 163.453125 " fill-opacity="1" fill-rule="nonzero"/></g></g><g clip-path="url(#eb6f3894a7)"><g clip-path="url(#b53ac5b5c2)"><path fill="#ffffff" d="M 26.027344 190.105469 L 69.007812 190.105469 L 69.007812 200.253906 L 26.027344 200.253906 Z M 26.027344 190.105469 " fill-opacity="1" fill-rule="nonzero"/></g></g><g clip-path="url(#e0cad0a5c0)"><g clip-path="url(#e804922cbe)"><path fill="#ffffff" d="M 19.398438 216.179688 L 62.378906 216.179688 L 62.378906 226.332031 L 19.398438 226.332031 Z M 19.398438 216.179688 " fill-opacity="1" fill-rule="nonzero"/></g></g><g fill="#ffffff" fill-opacity="1"><g transform="translate(68.418191, 227.227385)"><g><path d="M 2.125 0 L 21.984375 -94 L 51.234375 -94 L 69.625 -30.796875 L 70.203125 -30.796875 C 70.421875 -32.679688 70.734375 -35.082031 71.140625 -38 C 71.546875 -40.914062 71.992188 -43.875 72.484375 -46.875 C 72.984375 -49.875 73.445312 -52.46875 73.875 -54.65625 L 82.296875 -94 L 104.671875 -94 L 84.796875 0 L 55.546875 0 L 36.96875 -66.09375 L 36.453125 -66.09375 C 36.410156 -65.238281 36.28125 -63.769531 36.0625 -61.6875 C 35.851562 -59.613281 35.578125 -57.242188 35.234375 -54.578125 C 34.890625 -51.921875 34.515625 -49.234375 34.109375 -46.515625 C 33.703125 -43.796875 33.265625 -41.363281 32.796875 -39.21875 L 24.5 0 Z M 2.125 0 "/></g></g></g><g fill="#ffffff" fill-opacity="1"><g transform="translate(172.439444, 227.227385)"><g><path d="M 2.125 0 L 21.984375 -94 L 77.796875 -94 L 73.609375 -73.609375 L 42.953125 -73.609375 L 39.921875 -58.828125 L 68.46875 -58.828125 L 63.84375 -38.453125 L 35.296875 -38.453125 L 31.625 -20.703125 L 62.296875 -20.703125 L 57.921875 0 Z M 2.125 0 "/></g></g></g></svg>